<svg xmlns="http://www.w3.org/2000/svg" width="154" height="16" fill="none"><path fill="#263238" d="M35.45 15.185V.255h5.731q1.746-.001 2.81.452A3.6 3.6 0 0 1 45.646 2.1c.4.626.6 1.286.6 1.972 0 .64-.18 1.239-.53 1.804-.352.566-.89 1.017-1.606 1.367q1.385.393 2.129 1.353t.744 2.261c0 .7-.152 1.347-.455 1.952-.303.606-.675 1.064-1.123 1.387s-.999.572-1.674.74c-.668.169-1.495.25-2.466.25zm2.018-8.656h3.3q1.341-.001 1.929-.175.772-.224 1.164-.74.393-.517.393-1.306c0-.498-.124-.929-.365-1.306-.242-.377-.593-.633-1.04-.774q-.681-.21-2.322-.209h-3.053v4.51zm0 6.893h3.802c.655 0 1.11-.027 1.378-.074q.702-.122 1.165-.404a2.17 2.17 0 0 0 .771-.828c.2-.364.303-.78.303-1.259 0-.558-.144-1.043-.44-1.454q-.436-.615-1.213-.868-.775-.25-2.232-.249h-3.534zM50.02 15.185V.255h11.043V2.02h-9.018v4.57H60.5v1.75h-8.454v5.083h9.377v1.763zM65.542.256h9.562v14.923h-2.019V2.019H67.56v7.687q0 2.343-.227 3.433c-.152.727-.462 1.293-.944 1.696q-.722.606-1.826.606c-.448 0-.978-.08-1.605-.242l.345-1.75c.33.134.62.202.854.202.461 0 .799-.169 1.033-.505q.344-.506.345-2.376V.256zM78.032 7.916Q78.034 4.2 80.07 2.1 82.117 0 85.341 0c1.413 0 2.68.33 3.817.99a6.5 6.5 0 0 1 2.59 2.753q.89 1.764.89 4.005c0 1.514-.31 2.867-.938 4.058-.627 1.192-1.509 2.1-2.66 2.713a7.75 7.75 0 0 1-3.706.922c-1.44 0-2.72-.336-3.858-1.016a6.63 6.63 0 0 1-2.576-2.78 8.3 8.3 0 0 1-.868-3.73m2.08.027c0 1.797.496 3.217 1.489 4.247q1.486 1.555 3.727 1.555 2.285-.002 3.754-1.568c.985-1.044 1.475-2.531 1.475-4.45 0-1.211-.214-2.275-.634-3.183q-.629-1.363-1.847-2.107-1.209-.747-2.728-.747c-1.433 0-2.659.477-3.692 1.44-1.027.963-1.544 2.571-1.544 4.813M94.773 10.386l1.908-.161q.136 1.121.634 1.837c.33.478.84.869 1.536 1.158q1.043.444 2.343.444 1.158-.002 2.039-.336c.592-.223 1.026-.532 1.316-.922a2.1 2.1 0 0 0 .434-1.28c0-.47-.138-.874-.414-1.224s-.737-.647-1.378-.882c-.413-.155-1.315-.397-2.721-.727-1.405-.33-2.383-.64-2.948-.93q-1.096-.556-1.633-1.386a3.34 3.34 0 0 1-.537-1.858q.002-1.131.654-2.113c.44-.653 1.075-1.151 1.915-1.494C98.761.175 99.7 0 100.725 0q1.695-.002 2.997.532c.868.357 1.529.882 1.998 1.575q.7 1.038.751 2.349l-1.936.141q-.153-1.413-1.061-2.14c-.599-.485-1.488-.72-2.659-.72-1.22 0-2.115.222-2.673.66q-.839.654-.84 1.581c0 .539.199.976.592 1.326.385.343 1.405.7 3.045 1.064 1.639.363 2.769.68 3.382.949.889.404 1.544.908 1.971 1.521q.631.92.633 2.12-.002 1.19-.695 2.249c-.469.7-1.137 1.252-2.005 1.642-.875.39-1.853.585-2.942.585q-2.077.002-3.472-.592-1.404-.586-2.198-1.777c-.537-.78-.813-1.676-.84-2.679M109.971 15.185V.255h2.018v6.133h7.943V.256h2.019v14.923h-2.019V8.15h-7.943v7.034zM124.913 7.916q.001-3.716 2.04-5.816 2.046-2.1 5.27-2.1c1.412 0 2.68.33 3.817.99a6.53 6.53 0 0 1 2.59 2.753q.889 1.764.889 4.005.002 2.271-.937 4.058c-.627 1.192-1.509 2.1-2.66 2.713a7.74 7.74 0 0 1-3.706.922c-1.44 0-2.721-.336-3.858-1.016a6.63 6.63 0 0 1-2.577-2.78 8.44 8.44 0 0 1-.868-3.73m2.088.027c0 1.797.496 3.217 1.488 4.247q1.486 1.555 3.727 1.555 2.286-.002 3.755-1.568c.985-1.044 1.474-2.531 1.474-4.45 0-1.211-.214-2.275-.634-3.183q-.628-1.363-1.846-2.107-1.21-.747-2.728-.747c-1.433 0-2.66.477-3.693 1.44-1.026.963-1.543 2.571-1.543 4.813M142.343 15.185V.255h5.76c1.013 0 1.791.048 2.321.142.751.121 1.378.357 1.888.7q.763.513 1.226 1.44.464.932.462 2.033c0 1.273-.413 2.343-1.24 3.225q-1.242 1.32-4.478 1.319h-3.92v6.065h-2.019zm2.019-7.828h3.947c1.309 0 2.233-.235 2.784-.713s.82-1.145.82-2.006q.002-.937-.483-1.602a2.27 2.27 0 0 0-1.274-.882c-.338-.088-.972-.135-1.888-.135h-3.906z"/><rect width="13" height="13" x="18" y="1.047" stroke="#263238" stroke-width="2" rx="6.5"/><rect width="13" height="13" x="1" y="1.047" stroke="#263238" stroke-width="2" rx="6.5"/></svg>